<svg width="140" height="20" viewBox="0 0 140 20" fill="none" xmlns="http://www.w3.org/2000/svg">
<path d="M0.179688 19V16.9492L1.99609 16.5977V4.35156L0.179688 4V1.9375H8.26562C9.57812 1.9375 10.7031 2.14062 11.6406 2.54688C12.5781 2.95312 13.2969 3.53516 13.7969 4.29297C14.3047 5.05078 14.5586 5.96094 14.5586 7.02344C14.5586 8.02344 14.3086 8.91797 13.8086 9.70703C13.3086 10.4961 12.6133 11.1172 11.7227 11.5703C10.832 12.0234 9.80469 12.2539 8.64062 12.2617H5.41797V16.5977L7.24609 16.9492V19H0.179688ZM11.1602 19L8.28906 11.6289L11.3711 10.8672L13.8555 16.6094L15.3086 16.9492V19H11.1602ZM5.41797 9.625H8.20703C9.19141 9.625 9.92578 9.41797 10.4102 9.00391C10.9023 8.58203 11.1484 7.97266 11.1484 7.17578C11.1484 6.38672 10.9062 5.75781 10.4219 5.28906C9.9375 4.8125 9.21875 4.57422 8.26562 4.57422H5.41797V9.625ZM22.8086 19.2461C21.5586 19.2461 20.4844 18.9727 19.5859 18.4258C18.6875 17.8789 18 17.1211 17.5234 16.1523C17.0469 15.1758 16.8086 14.0547 16.8086 12.7891V12.543C16.8086 11.2852 17.0469 10.1719 17.5234 9.20312C18 8.22656 18.6836 7.46484 19.5742 6.91797C20.4727 6.36328 21.543 6.08594 22.7852 6.08594C24.043 6.08594 25.1172 6.36328 26.0078 6.91797C26.8984 7.46484 27.582 8.22266 28.0586 9.19141C28.5352 10.1602 28.7734 11.2773 28.7734 12.543V12.7891C28.7734 14.0547 28.5352 15.1758 28.0586 16.1523C27.582 17.1211 26.8984 17.8789 26.0078 18.4258C25.1172 18.9727 24.0508 19.2461 22.8086 19.2461ZM22.8086 16.6211C23.4023 16.6211 23.8867 16.4609 24.2617 16.1406C24.6367 15.8203 24.9141 15.375 25.0938 14.8047C25.2734 14.2266 25.3633 13.5547 25.3633 12.7891V12.543C25.3633 11.793 25.2734 11.1328 25.0938 10.5625C24.9141 9.98438 24.6328 9.53516 24.25 9.21484C23.875 8.88672 23.3867 8.72266 22.7852 8.72266C22.1992 8.72266 21.7148 8.88672 21.332 9.21484C20.9492 9.53516 20.668 9.98438 20.4883 10.5625C20.3164 11.1328 20.2305 11.793 20.2305 12.543V12.7891C20.2305 13.5547 20.3164 14.2266 20.4883 14.8047C20.668 15.3828 20.9492 15.832 21.332 16.1523C21.7148 16.4648 22.207 16.6211 22.8086 16.6211ZM36.4141 19.2461C35.1953 19.2461 34.1406 18.9727 33.25 18.4258C32.3672 17.8789 31.6875 17.125 31.2109 16.1641C30.7344 15.1953 30.4961 14.0898 30.4961 12.8477V12.4961C30.4961 11.2461 30.7383 10.1406 31.2227 9.17969C31.707 8.21875 32.3906 7.46484 33.2734 6.91797C34.1562 6.36328 35.1953 6.08594 36.3906 6.08594C37.5312 6.08594 38.5117 6.26562 39.332 6.625C40.1602 6.97656 40.832 7.38672 41.3477 7.85547L41.3242 11.4883H38.7461L38.2891 9.22656C38.1016 9.03906 37.8633 8.88672 37.5742 8.76953C37.2852 8.65234 36.9922 8.59375 36.6953 8.59375C36.0703 8.59375 35.5508 8.75 35.1367 9.0625C34.7305 9.375 34.4258 9.82031 34.2227 10.3984C34.0195 10.9766 33.918 11.6758 33.918 12.4961V12.8477C33.918 13.7148 34.0312 14.4297 34.2578 14.9922C34.4844 15.5469 34.7852 15.957 35.1602 16.2227C35.543 16.4883 35.9688 16.6211 36.4375 16.6211C37.0391 16.6211 37.5195 16.4648 37.8789 16.1523C38.2461 15.832 38.4961 15.3828 38.6289 14.8047H41.5586L41.5938 14.875C41.4609 15.7734 41.1953 16.5508 40.7969 17.207C40.4062 17.8633 39.8516 18.3672 39.1328 18.7188C38.4219 19.0703 37.5156 19.2461 36.4141 19.2461ZM42.9414 19V16.9492L44.5938 16.5977V3.13281L42.7656 2.78125V0.71875H48.0039V16.5977L49.4805 16.9492V19H42.9414ZM51.0156 19V17.0547L51.9766 16.832L51.9531 16.7852L49.4453 13.375L51.625 11.1367L55.7852 16.5859L57.3555 16.9492V19H51.0156ZM47.6406 15.5312L46 13.6211L51.5078 8.58203L51.5312 8.54688L50.2305 8.35938V6.32031H56.8281V8.38281L55.1875 8.79297L47.6406 15.5312ZM63.9883 19.2461C62.7773 19.2461 61.7188 18.9805 60.8125 18.4492C59.9062 17.9102 59.2031 17.1719 58.7031 16.2344C58.2109 15.2969 57.9648 14.2266 57.9648 13.0234V12.5547C57.9648 11.2969 58.1992 10.1836 58.668 9.21484C59.1367 8.23828 59.7969 7.47266 60.6484 6.91797C61.5078 6.36328 62.5195 6.08594 63.6836 6.08594C64.832 6.08594 65.7969 6.3125 66.5781 6.76562C67.3594 7.21875 67.9531 7.87109 68.3594 8.72266C68.7656 9.57422 68.9688 10.6055 68.9688 11.8164V13.6797H61.5156L61.4922 13.75C61.5391 14.3047 61.6758 14.8008 61.9023 15.2383C62.1367 15.668 62.4648 16.0078 62.8867 16.2578C63.3086 16.5 63.8203 16.6211 64.4219 16.6211C65.0469 16.6211 65.6289 16.543 66.168 16.3867C66.7148 16.2227 67.2461 15.9844 67.7617 15.6719L68.6875 17.7812C68.1641 18.2031 67.5039 18.5547 66.707 18.8359C65.918 19.1094 65.0117 19.2461 63.9883 19.2461ZM61.5391 11.418H65.7695V11.1133C65.7695 10.5977 65.6992 10.1562 65.5586 9.78906C65.4258 9.41406 65.207 9.125 64.9023 8.92188C64.6055 8.71875 64.2188 8.61719 63.7422 8.61719C63.2891 8.61719 62.9062 8.73828 62.5938 8.98047C62.2812 9.21484 62.0352 9.53906 61.8555 9.95312C61.6836 10.3672 61.5664 10.8359 61.5039 11.3594L61.5391 11.418ZM75.5312 19.2461C74.3516 19.2461 73.4414 18.9219 72.8008 18.2734C72.168 17.625 71.8516 16.5977 71.8516 15.1914V8.72266H70.1055V6.32031H71.8516V3.21484H75.2617V6.32031H77.5938V8.72266H75.2617V15.1797C75.2617 15.6719 75.3633 16.0234 75.5664 16.2344C75.7773 16.4453 76.0625 16.5508 76.4219 16.5508C76.6172 16.5508 76.8203 16.5391 77.0312 16.5156C77.25 16.4844 77.4375 16.4531 77.5938 16.4219L77.8867 18.8945C77.5352 18.9961 77.1523 19.0781 76.7383 19.1406C76.332 19.2109 75.9297 19.2461 75.5312 19.2461ZM79.3281 19V16.9492L80.9688 16.5977V8.73438L79.1523 8.38281V6.32031H84.1562L84.3086 8.13672C84.7305 7.48828 85.25 6.98438 85.8672 6.625C86.4922 6.26562 87.2031 6.08594 88 6.08594C89.2578 6.08594 90.2422 6.48828 90.9531 7.29297C91.6641 8.09766 92.0195 9.35938 92.0195 11.0781V16.5977L93.6602 16.9492V19H87.1211V16.9492L88.5859 16.5977V11.0898C88.5859 10.2383 88.418 9.63672 88.082 9.28516C87.7461 8.92578 87.2461 8.74609 86.582 8.74609C86.0898 8.74609 85.6602 8.85156 85.293 9.0625C84.9336 9.26562 84.6328 9.55859 84.3906 9.94141V16.5977L85.7734 16.9492V19H79.3281ZM100.691 19.2461C99.4414 19.2461 98.3672 18.9727 97.4688 18.4258C96.5703 17.8789 95.8828 17.1211 95.4062 16.1523C94.9297 15.1758 94.6914 14.0547 94.6914 12.7891V12.543C94.6914 11.2852 94.9297 10.1719 95.4062 9.20312C95.8828 8.22656 96.5664 7.46484 97.457 6.91797C98.3555 6.36328 99.4258 6.08594 100.668 6.08594C101.926 6.08594 103 6.36328 103.891 6.91797C104.781 7.46484 105.465 8.22266 105.941 9.19141C106.418 10.1602 106.656 11.2773 106.656 12.543V12.7891C106.656 14.0547 106.418 15.1758 105.941 16.1523C105.465 17.1211 104.781 17.8789 103.891 18.4258C103 18.9727 101.934 19.2461 100.691 19.2461ZM100.691 16.6211C101.285 16.6211 101.77 16.4609 102.145 16.1406C102.52 15.8203 102.797 15.375 102.977 14.8047C103.156 14.2266 103.246 13.5547 103.246 12.7891V12.543C103.246 11.793 103.156 11.1328 102.977 10.5625C102.797 9.98438 102.516 9.53516 102.133 9.21484C101.758 8.88672 101.27 8.72266 100.668 8.72266C100.082 8.72266 99.5977 8.88672 99.2148 9.21484C98.832 9.53516 98.5508 9.98438 98.3711 10.5625C98.1992 11.1328 98.1133 11.793 98.1133 12.543V12.7891C98.1133 13.5547 98.1992 14.2266 98.3711 14.8047C98.5508 15.3828 98.832 15.832 99.2148 16.1523C99.5977 16.4648 100.09 16.6211 100.691 16.6211ZM113.078 19.2461C111.898 19.2461 110.988 18.9219 110.348 18.2734C109.715 17.625 109.398 16.5977 109.398 15.1914V8.72266H107.652V6.32031H109.398V3.21484H112.809V6.32031H115.141V8.72266H112.809V15.1797C112.809 15.6719 112.91 16.0234 113.113 16.2344C113.324 16.4453 113.609 16.5508 113.969 16.5508C114.164 16.5508 114.367 16.5391 114.578 16.5156C114.797 16.4844 114.984 16.4531 115.141 16.4219L115.434 18.8945C115.082 18.9961 114.699 19.0781 114.285 19.1406C113.879 19.2109 113.477 19.2461 113.078 19.2461ZM122.512 19.2461C121.301 19.2461 120.242 18.9805 119.336 18.4492C118.43 17.9102 117.727 17.1719 117.227 16.2344C116.734 15.2969 116.488 14.2266 116.488 13.0234V12.5547C116.488 11.2969 116.723 10.1836 117.191 9.21484C117.66 8.23828 118.32 7.47266 119.172 6.91797C120.031 6.36328 121.043 6.08594 122.207 6.08594C123.355 6.08594 124.32 6.3125 125.102 6.76562C125.883 7.21875 126.477 7.87109 126.883 8.72266C127.289 9.57422 127.492 10.6055 127.492 11.8164V13.6797H120.039L120.016 13.75C120.062 14.3047 120.199 14.8008 120.426 15.2383C120.66 15.668 120.988 16.0078 121.41 16.2578C121.832 16.5 122.344 16.6211 122.945 16.6211C123.57 16.6211 124.152 16.543 124.691 16.3867C125.238 16.2227 125.77 15.9844 126.285 15.6719L127.211 17.7812C126.688 18.2031 126.027 18.5547 125.23 18.8359C124.441 19.1094 123.535 19.2461 122.512 19.2461ZM120.062 11.418H124.293V11.1133C124.293 10.5977 124.223 10.1562 124.082 9.78906C123.949 9.41406 123.73 9.125 123.426 8.92188C123.129 8.71875 122.742 8.61719 122.266 8.61719C121.812 8.61719 121.43 8.73828 121.117 8.98047C120.805 9.21484 120.559 9.53906 120.379 9.95312C120.207 10.3672 120.09 10.8359 120.027 11.3594L120.062 11.418ZM134.535 19.2461C133.59 19.2461 132.707 19.1562 131.887 18.9766C131.074 18.7969 130.293 18.5391 129.543 18.2031L129.508 14.6172H131.887L132.344 16.4453C132.609 16.5781 132.898 16.6836 133.211 16.7617C133.531 16.8398 133.895 16.8789 134.301 16.8789C135.066 16.8789 135.605 16.7539 135.918 16.5039C136.23 16.2539 136.387 15.9414 136.387 15.5664C136.387 15.2148 136.219 14.9062 135.883 14.6406C135.555 14.3672 134.895 14.1289 133.902 13.9258C132.402 13.6133 131.297 13.1289 130.586 12.4727C129.875 11.8164 129.52 10.9766 129.52 9.95312C129.52 9.25 129.695 8.60938 130.047 8.03125C130.406 7.45312 130.949 6.98828 131.676 6.63672C132.41 6.28516 133.348 6.10938 134.488 6.10938C135.441 6.10938 136.312 6.20312 137.102 6.39062C137.898 6.57031 138.566 6.80859 139.105 7.10547L139.141 10.5742H136.773L136.41 8.91016C136.199 8.75391 135.949 8.63672 135.66 8.55859C135.379 8.48047 135.059 8.44141 134.699 8.44141C134.098 8.44141 133.637 8.5625 133.316 8.80469C132.996 9.04688 132.836 9.35938 132.836 9.74219C132.836 9.96094 132.891 10.1641 133 10.3516C133.117 10.5391 133.344 10.7148 133.68 10.8789C134.016 11.043 134.504 11.1992 135.145 11.3477C136.715 11.707 137.859 12.1875 138.578 12.7891C139.297 13.3828 139.656 14.2188 139.656 15.2969C139.656 16.4766 139.227 17.4297 138.367 18.1562C137.516 18.8828 136.238 19.2461 134.535 19.2461Z" fill="#FF9000"/>
</svg>
